<svg version="1.2" xmlns="http://www.w3.org/2000/svg" viewBox="0 0 1408 1374" width="1408" height="1374">
	<title>AYARA 2</title>
	<style>
		.s0 { fill: #b9954e } 
	</style>
	<path id="Shape 10" class="s0" d="m801.3 852.3c16.4 27.8 47.6-15.1 61.9-21-11.3-63.7-38.9-119.2-41.5-174.6 16.9-42.3 66.7-51.1 57.8-124.2 0-47.7-13.3-60.9-38.1-95 35.6 28.9 67.4 41.2 75.7 107.6 3.3 67.2-24.2 106.6-53.5 125.3-7.1 34.2 16.2 76.6 22.9 111.8 17.4 45.1 18 85.5 66.4 70.5 102.1-59.7 146-143.3 274.1-194.6 26.4-37.2 19.9-97.2 0.1-140-24.5-63.8-46.2-92.9-81.1-128.6-37.1-42.3-90.7-98.1-197.6-81.3-58.8 14.8-66 35.8-107.5 58-21-16.3-29.1-24.2-50.5-32.3-45.4-5-85.9 8.1-126.4-2.7-54.8-6.4-74.7 28-100.9 34.3-32.3-26.2-70.6-55.4-139.6-60.8-66.2-2.3-105.6 30.8-131.1 50.4-58.1 65.1-110.7 105.4-130.5 241.3 1.5 87.7 90.8 79.8 125.9 123 57 48.2 106.3 95.1 170.8 135.4 52.2 9.9 52.8-56.4 70-94.1 22.5-47 31.3-102.1-7.8-110.3-55.1-49.3-20.9-193.5 31.3-201 15.2-20.6 19.7-5.6 17.5-4.1 0 0-4.5 4.5-4 5.3-47.1 16.4-48.6 147.3-3.7 169.2 59.1 38.9-6.8 139-14.8 210.5 12 6.9 47.9 56.1 60.3 15.8 0 0 7.1-0.5 7-0.5-1.6 76.4 9.3 152.9 3.3 233.8 11.2 57-1.2 114 21.2 176.1 15.3 41 29.9 55.9 63.4 73.8 77.7 22.2 120.3-24.2 140.4-62.4 23.4-54.7 7.1-147-34.1-169.7-22.1 0.9-26.8 12.1-36.9 23-0.6 26.3 22.2 26.3 27 62.4 3.3 25.9-10.2 55.7-26.7 63.2-4.5 0-9 0-18.7 2.8-41-36.4-18.2-128.2 6-191.7 27.6-68.9 36.2-137.9 35.2-206.9zm76.7 7.2c26.2 86.2 43 179.3 6.4 264.9-9.7-5.2 0.8 9.8-17.2 4.5-10.5-37.5-2.8-74.9-15.7-116.9-10.1-37.5-19-75-31.2-118.1 19.6-10.4 37.5-22.5 57.7-34.4zm-349.1 4.1c-12.9 46.4-23.2 92.9-21.8 145.2-4.4 38 5.1 106.2 36.5 121.1 6.7-32.5 4.3-80.1 16.9-122.8 1.7-38.3 32-83.5 22.1-120.6-18.5-4-28.9-16-44.2-23.2 0 0-9.3 0.3-9.5 0.3zm112.6-822.9c75 0.2 150-5.6 228.4 17.5 150.1 49.9 195.1 91.8 279.1 158.5 48.2 50.7 92.3 105.6 125.5 172.5 29.7 58.2 54.5 145 63.7 218.2 10.5 109.9-9.3 223-56.6 334.1-37.3 75.1-83.7 141.1-145.5 196.6-10.7 0.1-14.1-6.9-28.4-7.6 2.1-39.5-31.4-43.5-52.6-64.3-25.2-12.4-43.3-31.7-67.2-49.7-8.3 3.7-3-6-2.9-13.5 48.4 8.9 104.8 44.9 160 58.2 2.1-8.4 11.9-9.1 18.3-17.7 0-4.5 0-9-2.2-17.9-56.2-27.8-123.9-52.6-173.2-76.6 5.2-9.7-9.8 0.8-4.5-15.1 70.4 3.9 140.9 26 215.3 46 6.6-9.8 17.8-15.1 20-35.8-50.3-19.4-118.4-37-172.4-62.6 0-4.4 0-8.9 4.5-12.8 64.5 3.6 128.9 9.8 197.7 17.3-0.1-10.4 6.9-20.9 10.4-36.3-43.7-13.1-106.5-16.1-154.1-31.1 1.5-3-3.8-12.8 9-13.1 52.5-1.7 104.9-11.2 157.4-13.9 8.2 3.7 3-6 7.1-13.5 20.2-103.4 10-206.9-30.2-319.7-54.7-136.6-143.5-222.7-267.2-292.5-27.1-20.2-107.2-53.7-178.4-65.8-114.9-17.6-245.5-4.8-353.2 49.5-121.1 60.3-212.1 150.7-273.7 270.2-40.5 76.2-59.4 178.6-58.8 269.9 11.3 33.1-10 103.9 43.5 105.9 45 3.5 90 8.9 139.4 14 8.3-3.8 3 6 0 10.5-46.4 13.1-92.9 16.7-144.3 24.6-15 6.5 2.9 36.2 9.4 42.6 64.5-10.3 128.9-13.9 193.4-14.7-1.5 3 3.8 12.7-9 12.9-52.5 21.2-104.9 37.5-157.4 54.5-8.2-3.7-3 6-4.1 13.1 8.1 2.4 4.6 16.4 13.1 25.4 70.5-14 140.9-35.8 215.9-43 8.2-3.7 3 6 3.8 9.5-53.7 25.7-128.5 56.8-180.8 79.9-7.5 7.9 9.7 21.8 15.1 33.6 52.4-3.9 104.9-41.5 161.9-55.5 8.2-3.8 3 6 4 13-34.8 29.7-76.1 52.8-115.4 82.3-13.2 1.1 7.2 20.2-5.5 26.2-14-3.6-8.6 12.4-29.9 14.2-42.1-32.6-67-71.2-100.4-118.4-42-46.8-101.1-194.8-103.4-318.6-3.4-91.5 8.7-182.9 49.3-282 44.3-98.4 105.7-173.2 185.4-238.7 39.4-29.6 79-58.9 129.4-81.4 70.4-35.8 140.9-49 211.3-58.9zm326.5 1029.2c48.7 27.5 91.9 49.4 122.6 94.3-9.4 7.1-15.7 17.3-33.4 25.8-22.8-13.2-30.9-41.1-53.1-60.2-13.8-17.5-41.5-35.9-36.1-59.9zm258.2-341.3c4.5 0 9 0 18 0-5.2 9.8 9.8-0.7 4.5 13.5 5.3 9.8-9.7-0.7-8.2 9.8-22 12.9-23.2-19.9-14.3-23.3zm-1065.9 0c4.5 0 9 0 18 0-5.2 9.8 9.8-0.7 4.5 13.5-1.5 3 3.8 12.8-8.8 13.6-14-0.7-22.8-15-13.7-27.1zm283.4 341.8c-5.3 9.8 9.7-0.7 2.6 11.6-27.2 37.3-64.7 64.3-92.8 105.5-18.6 2.2-18.9-14-35.8-18.1 5.3-9.8-9.7 0.7-6.4-15 41.8-31.1 76.1-62 132.4-84zm535.4 107.2c16.6 9.1 24.9 11.3 35.6 23.2 4.3 20.7-16 16.9-28.4 27-6-3.4-29.6-36.2-7.2-50.2zm-553.6 1.7c-18.7 5.9-18.9 14.8-31.3 26.1-8.3-3.8-3 6-0.8 9.8 5.8 4.6 13.1 7.8 24.9 12.4 7.3-3.7 36.8-38.2 7.2-48.3z"/>
</svg>